<svg id="Camada_1" data-name="Camada 1" xmlns="http://www.w3.org/2000/svg" viewBox="0 0 388.47 425.52"><defs><style>.cls-1{opacity:0.99;}.cls-2{fill:#c5c5c5;}</style></defs><g id="swipe" class="cls-1"><g id="Grupo_738" data-name="Grupo 738"><g id="Grupo_737" data-name="Grupo 737"><path id="Caminho_680" data-name="Caminho 680" class="cls-2" d="M409.06,75.73h-111a9.25,9.25,0,0,0,0,18.5h111a9.25,9.25,0,0,0,0-18.5Z" transform="translate(-48.32 -38.65)"/></g></g><g id="Grupo_740" data-name="Grupo 740"><g id="Grupo_739" data-name="Grupo 739"><path id="Caminho_681" data-name="Caminho 681" class="cls-2" d="M415.61,78.45l-37-37a9.25,9.25,0,0,0-13.25,12.91l.17.17L396,85l-30.47,30.47a9.26,9.26,0,0,0,13.1,13.08l37-37a9.24,9.24,0,0,0,0-13.08Z" transform="translate(-48.32 -38.65)"/></g></g><g id="Grupo_742" data-name="Grupo 742"><g id="Grupo_741" data-name="Grupo 741"><path id="Caminho_682" data-name="Caminho 682" class="cls-2" d="M168.57,75.73h-111a9.25,9.25,0,0,0,0,18.5h111a9.25,9.25,0,0,0,0-18.5Z" transform="translate(-48.32 -38.65)"/></g></g><g id="Grupo_744" data-name="Grupo 744"><g id="Grupo_743" data-name="Grupo 743"><path id="Caminho_683" data-name="Caminho 683" class="cls-2" d="M70.66,85,101.13,54.5A9.25,9.25,0,0,0,88.05,41.43l-37,37a9.25,9.25,0,0,0,0,13.08l37,37a9.22,9.22,0,0,0,6.56,2.7,9.09,9.09,0,0,0,6.53-2.72,9.25,9.25,0,0,0,0-13.08Z" transform="translate(-48.32 -38.65)"/></g></g><g id="Grupo_746" data-name="Grupo 746"><g id="Grupo_745" data-name="Grupo 745"><path id="Caminho_684" data-name="Caminho 684" class="cls-2" d="M399.81,223.72A36.83,36.83,0,0,0,379.24,230a37,37,0,0,0-55.5-18.5,37.1,37.1,0,0,0-34.93-24.75,36.63,36.63,0,0,0-18.49,5V131.22a37,37,0,0,0-74,0V288.46l-32.15-24.1a48.49,48.49,0,0,0-63.06,4.47,27.78,27.78,0,0,0,0,39.24L232.84,439.8a82.77,82.77,0,0,0,58.88,24.38h43.34A101.87,101.87,0,0,0,436.79,362.45V260.72A37,37,0,0,0,399.81,223.72Zm18.5,138.74a83.35,83.35,0,0,1-83.25,83.24H291.72a64.35,64.35,0,0,1-45.8-19L114.19,295a9.25,9.25,0,0,1,0-13.08,29.94,29.94,0,0,1,38.91-2.76L200,314.37a9.25,9.25,0,0,0,14.8-7.39V131.22a18.5,18.5,0,1,1,37,0V270a9.25,9.25,0,0,0,18.5,0V223.72a18.5,18.5,0,0,1,37,0V270a9.25,9.25,0,1,0,18.5,0V242.22a18.5,18.5,0,1,1,37,0h0V270a9.25,9.25,0,0,0,18.5,0v-9.24a18.5,18.5,0,0,1,37,0V362.45Z" transform="translate(-48.32 -38.65)"/></g></g></g></svg>