<svg id="Logo" xmlns="http://www.w3.org/2000/svg" width="139.552" height="16.733" viewBox="0 0 139.552 16.733">
  <path id="Caminho_203" data-name="Caminho 203" d="M-1794.016-1153.826v-15.93h13.877v3.592h-9.281v2.432h8.813v3.592h-8.813v2.722h9.817l-.446,3.592Z" transform="translate(1794.016 1170.158)" fill="#222b4c"/>
  <path id="Caminho_204" data-name="Caminho 204" d="M-1666.882-1153.826l-6.492-15.93h5.154l4.194,11.423,4.194-11.423h5.042l-6.493,15.93Z" transform="translate(1687.677 1170.158)" fill="#222b4c"/>
  <path id="Caminho_205" data-name="Caminho 205" d="M-1511.575-1153.826v-15.93h13.877v3.592h-9.281v2.432h8.813v3.592h-8.813v2.722h9.817l-.446,3.592Z" transform="translate(1545.061 1170.158)" fill="#222b4c"/>
  <path id="Caminho_206" data-name="Caminho 206" d="M-1370.375-1153.826l-3.19-5.4h-3.659v5.4h-4.418v-15.93h8.143q7.117,0,7.117,5.288a4.741,4.741,0,0,1-.692,2.644,4.811,4.811,0,0,1-2.119,1.707l3.9,6.292Zm-3.414-8.791a4.194,4.194,0,0,0,2.209-.446,1.6,1.6,0,0,0,.692-1.45,1.572,1.572,0,0,0-.658-1.417,4.147,4.147,0,0,0-2.2-.435h-3.48v3.748Z" transform="translate(1430.533 1170.158)" fill="#222b4c"/>
  <path id="Caminho_207" data-name="Caminho 207" d="M-1222.262-1153.826v-9.281l-4.127,9.281h-3.436l-4.127-9.237v9.237h-4.239v-15.93h5.288l4.886,10.843,4.864-10.843h5.2v15.93Z" transform="translate(1304.09 1170.158)" fill="#222b4c"/>
  <path id="Caminho_208" data-name="Caminho 208" d="M-1038.027-1164.777a8.473,8.473,0,0,1-1.126,4.429,7.426,7.426,0,0,1-3.28,2.911,11.861,11.861,0,0,1-5.143,1.026,11.8,11.8,0,0,1-5-.982,7.39,7.39,0,0,1-3.28-2.867,8.452,8.452,0,0,1-1.16-4.518,8.466,8.466,0,0,1,1.127-4.429,7.426,7.426,0,0,1,3.279-2.912,11.859,11.859,0,0,1,5.143-1.026,11.8,11.8,0,0,1,5,.982,7.4,7.4,0,0,1,3.28,2.867A8.46,8.46,0,0,1-1038.027-1164.777Zm-4.864,0a4.585,4.585,0,0,0-1.2-3.391,4.616,4.616,0,0,0-3.413-1.2,4.655,4.655,0,0,0-3.425,1.2,4.56,4.56,0,0,0-1.216,3.391,4.585,4.585,0,0,0,1.2,3.391,4.617,4.617,0,0,0,3.413,1.2,4.656,4.656,0,0,0,3.425-1.2A4.561,4.561,0,0,0-1042.89-1164.777Z" transform="translate(1144.392 1173.144)" fill="#222b4c"/>
  <path id="Caminho_209" data-name="Caminho 209" d="M-875.108-1153.826l-3.191-5.4h-3.659v5.4h-4.418v-15.93h8.144q7.116,0,7.117,5.288a4.743,4.743,0,0,1-.692,2.644,4.811,4.811,0,0,1-2.119,1.707l3.9,6.292Zm-3.414-8.791a4.194,4.194,0,0,0,2.209-.446,1.6,1.6,0,0,0,.692-1.45,1.573,1.573,0,0,0-.658-1.417,4.148,4.148,0,0,0-2.2-.435h-3.48v3.748Z" transform="translate(993.984 1170.158)" fill="#222b4c"/>
  <path id="Caminho_210" data-name="Caminho 210" d="M-738.518-1065.689v3.592h11.876l2.537-3.592Z" transform="translate(863.657 1078.429)" fill="#222b4c"/>
  <path id="Caminho_211" data-name="Caminho 211" d="M-738.518-1169.756v3.592h11.876l2.537-3.592Z" transform="translate(863.657 1170.157)" fill="#222b4c"/>
  <path id="Caminho_212" data-name="Caminho 212" d="M-738.518-1117.723v3.592h11.876l2.537-3.592Z" transform="translate(863.657 1124.293)" fill="#222b4c"/>
</svg>
