<svg xmlns="http://www.w3.org/2000/svg" xmlns:xlink="http://www.w3.org/1999/xlink" width="153.8" height="113.082" viewBox="0 0 153.8 113.082">
  <defs>
    <clipPath id="clip-path">
      <rect id="Ret창ngulo_342" data-name="Ret창ngulo 342" width="140.8" height="109.082" fill="#d8dffc"/>
    </clipPath>
    <clipPath id="clip-path-2">
      <rect id="Ret창ngulo_341" data-name="Ret창ngulo 341" width="135.2" height="106" fill="#222b4c" stroke="#1e2541" stroke-width="1"/>
    </clipPath>
  </defs>
  <g id="Grupo_840" data-name="Grupo 840" transform="translate(-902 -5833.918)">
    <g id="Grupo_601" data-name="Grupo 601" transform="translate(915 5833.918)">
      <g id="Grupo_594" data-name="Grupo 594" clip-path="url(#clip-path)">
        <path id="Caminho_618" data-name="Caminho 618" d="M140.8,94.037,121.994,78.993v9.961H53.372A35.714,35.714,0,1,1,71.6,83.871H87.434A45.614,45.614,0,0,0,98.159,62.715l.321-1.547,8.265-2.138v-11.3l-8.25-2.088-.323-1.561a45.342,45.342,0,0,0-6.564-15.787l-.876-1.335L95.1,19.622l-7.986-7.985-7.334,4.375-1.329-.876A45.343,45.343,0,0,0,62.667,8.573l-1.56-.322L59.02,0H47.729L45.641,8.25l-1.561.322a45.343,45.343,0,0,0-15.787,6.564l-1.333.876-7.334-4.375L11.64,19.626l4.372,7.335-.876,1.329A45.368,45.368,0,0,0,8.572,44.079l-.322,1.56L0,47.725v11.3l8.255,2.108.323,1.555A45.9,45.9,0,0,0,53.372,99.12h68.622v9.961Z" fill="#d8dffc"/>
      </g>
    </g>
    <g id="Grupo_602" data-name="Grupo 602" transform="translate(902 5841)">
      <g id="Grupo_592" data-name="Grupo 592" clip-path="url(#clip-path-2)">
        <path id="Caminho_616" data-name="Caminho 616" d="M135.2,84.229,107.985,62.458V75.59H88.523a43.011,43.011,0,0,0,7.46-15.779l7.683-1.986V41.512l-7.671-1.94a42.777,42.777,0,0,0-5.173-12.437l4.065-6.818L83.346,8.777l-6.818,4.063A42.809,42.809,0,0,0,64.094,7.668L62.152,0H45.83L43.89,7.672a42.7,42.7,0,0,0-12.434,5.173L24.638,8.782,13.1,20.321l4.065,6.818a42.812,42.812,0,0,0-5.173,12.436L4.319,41.515V57.83L12,59.79a42.768,42.768,0,0,0,7.492,15.8H0V92.868H107.985V106ZM4.319,88.549V79.91H23.242A43.657,43.657,0,0,0,35.3,88.549Zm49.673,0a39,39,0,0,1-38.065-30.96l-.274-1.322L8.639,54.476v-9.6L15.65,43.1l.274-1.326A38.531,38.531,0,0,1,21.5,28.36l.744-1.13L18.53,21l6.786-6.786,6.233,3.717,1.129-.743A38.534,38.534,0,0,1,46.1,11.607l1.326-.275L49.194,4.32h9.595l1.775,7.011,1.326.274A38.538,38.538,0,0,1,75.3,17.183l1.131.744,6.231-3.717,6.787,6.785-3.715,6.234.743,1.13a38.558,38.558,0,0,1,5.579,13.415l.274,1.326,7.012,1.776V54.48L92.325,56.3l-.271,1.316a38.753,38.753,0,0,1-9.114,17.976H69.489a30.171,30.171,0,1,0-15.5,4.322H112.3V71.445l15.98,12.784L112.3,97.014V88.549Zm0-12.958A25.916,25.916,0,1,1,79.909,49.674,25.945,25.945,0,0,1,53.993,75.59" transform="translate(0 -0.001)" fill="#222b4c" stroke="#1e2541" stroke-width="1"/>
        <path id="Caminho_617" data-name="Caminho 617" d="M144.958,99.6a6.471,6.471,0,0,0-4.319-6.081V78h-4.319V93.516a6.463,6.463,0,0,0,2.16,12.561,6.391,6.391,0,0,0,2.776-.65l6.5,6.5,3.054-3.054-6.5-6.5a6.391,6.391,0,0,0,.65-2.776m-6.479,2.16a2.16,2.16,0,1,1,2.16-2.16,2.164,2.164,0,0,1-2.16,2.16" transform="translate(-84.486 -49.924)" fill="#222b4c" stroke="#1e2541" stroke-width="1"/>
      </g>
    </g>
  </g>
</svg>
