<svg xmlns="http://www.w3.org/2000/svg" xmlns:xlink="http://www.w3.org/1999/xlink" width="90.887" height="90.886" viewBox="0 0 90.887 90.886">
  <defs>
    <clipPath id="clip-path">
      <rect id="Retângulo_377" data-name="Retângulo 377" width="54.8" height="54.8" fill="#d8dffc"/>
    </clipPath>
  </defs>
  <g id="Grupo_677" data-name="Grupo 677" transform="translate(-10763 -4091)">
    <g id="Grupo_676" data-name="Grupo 676" transform="translate(10773 4114)">
      <g id="Grupo_670" data-name="Grupo 670" transform="translate(0 0)" clip-path="url(#clip-path)">
        <path id="Caminho_667" data-name="Caminho 667" d="M1.233,34.047h7.3l.827,2L4.2,41.2a1.232,1.232,0,0,0,0,1.744L11.853,50.6a1.262,1.262,0,0,0,1.744,0l5.159-5.16,2,.827v7.3A1.234,1.234,0,0,0,21.987,54.8H32.814a1.234,1.234,0,0,0,1.233-1.233v-7.3l2-.827L41.2,50.6a1.262,1.262,0,0,0,1.744,0L50.6,42.947a1.232,1.232,0,0,0,0-1.744l-.84-.84h3.806A1.234,1.234,0,0,0,54.8,39.13V8.452L33.955,7.879h.091V1.232A1.234,1.234,0,0,0,32.814,0H21.985a1.234,1.234,0,0,0-1.232,1.233v7.3l-2,.827L13.6,4.2a1.262,1.262,0,0,0-1.744,0L4.2,11.853a1.233,1.233,0,0,0,0,1.744l5.16,5.159-.827,2h-7.3A1.235,1.235,0,0,0,0,21.986V32.814a1.234,1.234,0,0,0,1.233,1.233" transform="translate(0 0)" fill="#d8dffc"/>
      </g>
    </g>
    <circle id="Elipse_74" data-name="Elipse 74" cx="5.5" cy="5.5" r="5.5" transform="translate(10819 4103)" fill="#ea575f"/>
    <g id="engineering" transform="translate(10761 4089)">
      <path id="Caminho_656" data-name="Caminho 656" d="M2.121,54.723a1.514,1.514,0,0,0,1.191,1.36l5.279,1.139A23.931,23.931,0,0,0,9.3,59.877l-4,3.62a1.514,1.514,0,0,0-.35,1.774A30.289,30.289,0,0,0,7.371,69.49a1.515,1.515,0,0,0,1.71.58l5.131-1.653a24.273,24.273,0,0,0,1.954,1.954L14.514,75.5a1.515,1.515,0,0,0,.58,1.71,30.291,30.291,0,0,0,4.219,2.418,1.516,1.516,0,0,0,1.774-.35l3.62-4a24.387,24.387,0,0,0,2.655.709L28.5,81.271a1.517,1.517,0,0,0,1.359,1.191c.806.064,1.613.121,2.436.121s1.63-.058,2.436-.121a1.514,1.514,0,0,0,1.36-1.191l1.139-5.279a23.958,23.958,0,0,0,2.655-.709l3.62,4a1.513,1.513,0,0,0,1.774.35A30.444,30.444,0,0,0,49.5,77.212a1.515,1.515,0,0,0,.58-1.71l-1.653-5.131a24.5,24.5,0,0,0,1.954-1.953l5.131,1.653a1.513,1.513,0,0,0,1.71-.58,30.291,30.291,0,0,0,2.418-4.219,1.514,1.514,0,0,0-.35-1.774l-4-3.62A24.387,24.387,0,0,0,56,57.223l5.279-1.139a1.517,1.517,0,0,0,1.191-1.359c.062-.807.12-1.615.12-2.437s-.058-1.63-.121-2.436a1.514,1.514,0,0,0-1.191-1.36L56,47.353a23.957,23.957,0,0,0-.709-2.655l4-3.62a1.514,1.514,0,0,0,.35-1.774,30.442,30.442,0,0,0-2.418-4.219,1.513,1.513,0,0,0-1.71-.58l-5.131,1.653A24.27,24.27,0,0,0,48.425,34.2l1.653-5.131a1.515,1.515,0,0,0-.58-1.71,30.29,30.29,0,0,0-4.219-2.418,1.512,1.512,0,0,0-1.774.35l-3.62,4a24.386,24.386,0,0,0-2.655-.709L36.09,23.3a1.517,1.517,0,0,0-1.359-1.191,30.787,30.787,0,0,0-4.873,0A1.514,1.514,0,0,0,28.5,23.3l-1.139,5.279a23.931,23.931,0,0,0-2.654.709l-3.62-4a1.514,1.514,0,0,0-1.774-.35,30.29,30.29,0,0,0-4.219,2.418,1.515,1.515,0,0,0-.58,1.71L16.165,34.2a24.27,24.27,0,0,0-1.954,1.954L9.082,34.5a1.511,1.511,0,0,0-1.71.58A30.29,30.29,0,0,0,4.954,39.3a1.514,1.514,0,0,0,.35,1.774l4,3.62a24.386,24.386,0,0,0-.709,2.655L3.312,48.492A1.517,1.517,0,0,0,2.121,49.85C2.058,50.658,2,51.465,2,52.288s.058,1.63.121,2.436Zm2.94-3.51L10.215,50.1a1.515,1.515,0,0,0,1.175-1.238,21.117,21.117,0,0,1,1.089-4.076,1.513,1.513,0,0,0-.4-1.659L8.188,39.6c.339-.65.694-1.272,1.06-1.862l4.993,1.609a1.521,1.521,0,0,0,1.637-.482,21.3,21.3,0,0,1,3-3,1.513,1.513,0,0,0,.482-1.637L17.748,29.24q.884-.552,1.862-1.06l3.526,3.893a1.517,1.517,0,0,0,1.66.4,21.015,21.015,0,0,1,4.075-1.089,1.515,1.515,0,0,0,1.238-1.175l1.112-5.153a19.949,19.949,0,0,1,2.149,0l1.113,5.153a1.515,1.515,0,0,0,1.238,1.175A21.117,21.117,0,0,1,39.8,32.473a1.512,1.512,0,0,0,1.659-.4l3.526-3.891c.65.339,1.272.694,1.862,1.06l-1.609,4.993a1.516,1.516,0,0,0,.482,1.637,21.3,21.3,0,0,1,3,3,1.509,1.509,0,0,0,1.637.482l4.993-1.609q.552.884,1.06,1.86L52.51,43.128a1.515,1.515,0,0,0-.4,1.66A21.015,21.015,0,0,1,53.2,48.863,1.515,1.515,0,0,0,54.375,50.1l5.153,1.112c.02.356.033.715.033,1.075s-.012.72-.032,1.074l-5.153,1.113A1.515,1.515,0,0,0,53.2,55.713a21.117,21.117,0,0,1-1.089,4.076,1.513,1.513,0,0,0,.4,1.659L56.4,64.974c-.339.65-.694,1.272-1.06,1.862L50.35,65.227a1.508,1.508,0,0,0-1.637.482,21.379,21.379,0,0,1-3,3,1.514,1.514,0,0,0-.482,1.636l1.609,4.993q-.884.552-1.86,1.06L41.457,72.5a1.52,1.52,0,0,0-1.66-.4,21.016,21.016,0,0,1-4.075,1.089,1.515,1.515,0,0,0-1.238,1.175l-1.112,5.153a19.949,19.949,0,0,1-2.149,0L30.11,74.366a1.515,1.515,0,0,0-1.238-1.175A21.117,21.117,0,0,1,24.8,72.1a1.511,1.511,0,0,0-1.659.4l-3.526,3.891c-.65-.339-1.272-.694-1.862-1.06l1.609-4.993a1.516,1.516,0,0,0-.482-1.637,21.3,21.3,0,0,1-3-3,1.513,1.513,0,0,0-1.637-.482L9.25,66.833q-.552-.884-1.06-1.862l3.893-3.526a1.515,1.515,0,0,0,.4-1.66,21.015,21.015,0,0,1-1.089-4.075,1.515,1.515,0,0,0-1.175-1.238L5.061,53.363c-.018-.356-.032-.715-.032-1.075S5.042,51.568,5.061,51.214Z" transform="translate(0 10.303)" fill="#1e2541"/>
      <path id="Caminho_657" data-name="Caminho 657" d="M66.172,23.563a1.514,1.514,0,0,0,1.05-1.271,17.815,17.815,0,0,0,.133-2.115,18.121,18.121,0,0,0-.132-2.115,1.514,1.514,0,0,0-1.05-1.271l-4.2-1.319q-.189-.516-.418-1.012l2.036-3.9a1.518,1.518,0,0,0-.155-1.641,18.34,18.34,0,0,0-3-3A1.518,1.518,0,0,0,58.8,5.765L54.894,7.8q-.5-.227-1.012-.417l-1.319-4.2a1.514,1.514,0,0,0-1.271-1.05,16.757,16.757,0,0,0-4.231,0,1.514,1.514,0,0,0-1.271,1.05l-1.319,4.2q-.516.189-1.012.418l-3.9-2.036a1.521,1.521,0,0,0-1.641.155,18.34,18.34,0,0,0-3,3,1.515,1.515,0,0,0-.156,1.641l2.034,3.9q-.227.5-.417,1.012l-4.2,1.319a1.514,1.514,0,0,0-1.05,1.271,17.032,17.032,0,0,0,0,4.229,1.514,1.514,0,0,0,1.05,1.271l4.2,1.319q.189.516.418,1.012l-2.036,3.9a1.518,1.518,0,0,0,.155,1.641,18.34,18.34,0,0,0,3,3,1.518,1.518,0,0,0,1.641.156l3.9-2.034q.5.227,1.012.417l1.319,4.2a1.514,1.514,0,0,0,1.271,1.05,17.9,17.9,0,0,0,2.118.133,18.122,18.122,0,0,0,2.115-.132,1.514,1.514,0,0,0,1.271-1.05l1.319-4.2q.516-.189,1.012-.418l3.9,2.036a1.515,1.515,0,0,0,1.641-.155,18.34,18.34,0,0,0,3-3,1.515,1.515,0,0,0,.156-1.641l-2.036-3.9q.229-.5.418-1.012Zm-5.847-1.339a1.519,1.519,0,0,0-1,1.01,10.671,10.671,0,0,1-.809,1.96,1.511,1.511,0,0,0-.009,1.418L60.432,30.3A15.461,15.461,0,0,1,59.3,31.432L55.612,29.51a1.515,1.515,0,0,0-1.418.009,10.67,10.67,0,0,1-1.96.809,1.519,1.519,0,0,0-1.01,1L49.976,35.3a12.762,12.762,0,0,1-1.6,0l-1.248-3.975a1.519,1.519,0,0,0-1.01-1,10.525,10.525,0,0,1-1.959-.809,1.514,1.514,0,0,0-1.419-.009l-3.684,1.922A15.459,15.459,0,0,1,37.923,30.3l1.922-3.684a1.515,1.515,0,0,0-.009-1.418,10.67,10.67,0,0,1-.809-1.96,1.519,1.519,0,0,0-1-1.01l-3.975-1.248c-.018-.277-.026-.542-.026-.8s.008-.521.026-.8l3.975-1.248a1.519,1.519,0,0,0,1-1.01,10.526,10.526,0,0,1,.809-1.959,1.514,1.514,0,0,0,.009-1.419l-1.922-3.684a15.46,15.46,0,0,1,1.136-1.136l3.684,1.922a1.519,1.519,0,0,0,1.418-.009,10.669,10.669,0,0,1,1.96-.809,1.519,1.519,0,0,0,1.01-1l1.248-3.975a12.761,12.761,0,0,1,1.6,0L51.224,9.03a1.519,1.519,0,0,0,1.01,1,10.526,10.526,0,0,1,1.959.809,1.514,1.514,0,0,0,1.419.009L59.3,8.922a15.461,15.461,0,0,1,1.136,1.136L58.51,13.742a1.515,1.515,0,0,0,.009,1.418,10.67,10.67,0,0,1,.809,1.96,1.519,1.519,0,0,0,1,1.01L64.3,19.379c.018.277.026.542.026.8s-.008.521-.026.8Z" transform="translate(14.929)" fill="#1e2541"/>
      <path id="Caminho_658" data-name="Caminho 658" d="M71.178,39.063l-2.6-.924a12.277,12.277,0,0,0-.51-1.238l1.183-2.492a1.508,1.508,0,0,0-.176-1.581,15.245,15.245,0,0,0-2.6-2.605,1.515,1.515,0,0,0-1.583-.176L62.392,31.23a12.1,12.1,0,0,0-1.236-.509l-.926-2.6a1.518,1.518,0,0,0-1.245-1,13.959,13.959,0,0,0-3.676,0,1.513,1.513,0,0,0-1.245,1l-.924,2.6a12.277,12.277,0,0,0-1.238.51L49.41,30.049a1.516,1.516,0,0,0-1.581.176,15.245,15.245,0,0,0-2.605,2.6,1.517,1.517,0,0,0-.176,1.583L46.231,36.9a12.1,12.1,0,0,0-.509,1.236l-2.6.926a1.518,1.518,0,0,0-1,1.245A14.842,14.842,0,0,0,42,42.147a15.184,15.184,0,0,0,.121,1.837,1.513,1.513,0,0,0,1,1.245l2.6.924a12.275,12.275,0,0,0,.51,1.238l-1.183,2.492a1.508,1.508,0,0,0,.176,1.581,15.245,15.245,0,0,0,2.6,2.605,1.518,1.518,0,0,0,1.583.176L51.9,53.063a12.1,12.1,0,0,0,1.236.509l.926,2.6a1.518,1.518,0,0,0,1.245,1,14.631,14.631,0,0,0,1.837.124,15.184,15.184,0,0,0,1.837-.121,1.513,1.513,0,0,0,1.245-1l.924-2.6a12.277,12.277,0,0,0,1.238-.51l2.492,1.183a1.505,1.505,0,0,0,1.581-.176,15.245,15.245,0,0,0,2.605-2.6,1.517,1.517,0,0,0,.176-1.583l-1.183-2.493a12.1,12.1,0,0,0,.509-1.236l2.6-.926a1.518,1.518,0,0,0,1-1.245,14.628,14.628,0,0,0,.124-1.837,15.181,15.181,0,0,0-.121-1.837,1.515,1.515,0,0,0-1-1.247ZM69.251,42.7l-2.4.853a1.515,1.515,0,0,0-.953,1.022,9.014,9.014,0,0,1-.841,2.04,1.518,1.518,0,0,0-.05,1.4L66.094,50.3q-.377.414-.789.789L63.013,50a1.519,1.519,0,0,0-1.4.05,9.018,9.018,0,0,1-2.039.841,1.52,1.52,0,0,0-1.024.953l-.853,2.4a10.355,10.355,0,0,1-1.106,0l-.853-2.4a1.515,1.515,0,0,0-1.022-.953,9.014,9.014,0,0,1-2.04-.841,1.527,1.527,0,0,0-1.4-.05l-2.292,1.088q-.414-.377-.789-.789l1.088-2.292a1.514,1.514,0,0,0-.05-1.4,9.018,9.018,0,0,1-.841-2.039,1.52,1.52,0,0,0-.953-1.024l-2.4-.853c-.012-.183-.018-.367-.018-.553s.006-.371.015-.553l2.4-.854a1.509,1.509,0,0,0,.951-1.022,9.058,9.058,0,0,1,.842-2.04,1.518,1.518,0,0,0,.05-1.4L48.2,33.99q.377-.414.789-.789l2.292,1.088a1.509,1.509,0,0,0,1.4-.05,9.019,9.019,0,0,1,2.039-.841,1.52,1.52,0,0,0,1.024-.953l.853-2.4a10.357,10.357,0,0,1,1.106,0l.853,2.4a1.515,1.515,0,0,0,1.022.953,9.014,9.014,0,0,1,2.04.841,1.51,1.51,0,0,0,1.4.05L65.3,33.2q.414.377.789.789L65,36.282a1.514,1.514,0,0,0,.05,1.4,9.018,9.018,0,0,1,.841,2.039,1.52,1.52,0,0,0,.953,1.024l2.4.853c.012.185.018.368.018.554S69.26,42.517,69.251,42.7Z" transform="translate(20.591 12.87)" fill="#1e2541"/>
      <path id="Caminho_659" data-name="Caminho 659" d="M27.663,64.325A16.663,16.663,0,1,0,11,47.663,16.682,16.682,0,0,0,27.663,64.325Zm0-30.3A13.633,13.633,0,1,1,14.03,47.663,13.65,13.65,0,0,1,27.663,34.03Z" transform="translate(4.633 14.928)" fill="#1e2541"/>
      <path id="Caminho_660" data-name="Caminho 660" d="M2.022,31.57l2.327,1.94A36.281,36.281,0,0,1,32.284,20.423c.771,0,1.541.044,2.31.092l-1.866,1.866,2.142,2.142,4.544-4.544a1.513,1.513,0,0,0,0-2.142L34.87,13.293l-2.142,2.142,2.059,2.059c-.833-.053-1.668-.1-2.5-.1A39.3,39.3,0,0,0,2.022,31.57Z" transform="translate(0.011 5.813)" fill="#1e2541"/>
      <path id="Caminho_661" data-name="Caminho 661" d="M45.574,9a7.574,7.574,0,1,0,7.574,7.574A7.582,7.582,0,0,0,45.574,9Zm0,12.118a4.544,4.544,0,1,1,4.544-4.544A4.55,4.55,0,0,1,45.574,21.118Z" transform="translate(18.532 3.603)" fill="#1e2541"/>
      <path id="Caminho_662" data-name="Caminho 662" d="M54.059,33a6.059,6.059,0,1,0,6.059,6.059A6.065,6.065,0,0,0,54.059,33Zm0,9.089a3.03,3.03,0,1,1,3.03-3.03A3.033,3.033,0,0,1,54.059,42.089Z" transform="translate(23.68 15.958)" fill="#1e2541"/>
      <path id="Caminho_663" data-name="Caminho 663" d="M64.891,5.545,57.317,4.03a1.511,1.511,0,0,0-1.783,1.188l-1.515,7.574,2.97.6.816-4.078a22.729,22.729,0,0,1,2.243,9.838,22.479,22.479,0,0,1-4.984,14.2l2.365,1.895a25.771,25.771,0,0,0,2.989-27.5l3.878.776Z" transform="translate(26.778 1.029)" fill="#1e2541"/>
    </g>
  </g>
</svg>
