<svg xmlns="http://www.w3.org/2000/svg" xmlns:xlink="http://www.w3.org/1999/xlink" width="84.387" height="80.467" viewBox="0 0 84.387 80.467">
  <defs>
    <clipPath id="clip-path">
      <rect id="Retângulo_375" data-name="Retângulo 375" width="61.887" height="52.267" fill="#d8dffc"/>
    </clipPath>
  </defs>
  <g id="Grupo_669" data-name="Grupo 669" transform="translate(-10758.5 -3831.499)">
    <g id="Grupo_668" data-name="Grupo 668" transform="translate(10781 3848)">
      <g id="Grupo_667" data-name="Grupo 667" transform="translate(0 0)" clip-path="url(#clip-path)">
        <path id="Caminho_666" data-name="Caminho 666" d="M3.953,40.728a1.579,1.579,0,0,0,1.125.465h0A1.591,1.591,0,0,0,6.2,38.477l-2.662-2.66a1.228,1.228,0,0,1,0-1.729l2.13-2.127A1.236,1.236,0,0,1,7.1,31.741a1.591,1.591,0,0,0,.539.451L19.781,44.313a1.565,1.565,0,0,0,.289.4,1.61,1.61,0,0,0,.364.272,1.2,1.2,0,0,1,.262.757,1.213,1.213,0,0,1-.35.864l-2.13,2.126a1.24,1.24,0,0,1-1.736,0l-2.67-2.667a1.591,1.591,0,0,0-2.244,2.257l2.663,2.663a4.372,4.372,0,0,0,3.1,1.283s.008,0,.013,0a4.379,4.379,0,0,0,3.107-1.283l2.132-2.129a4.426,4.426,0,0,0,.774-5.192l4.329-4.325c.392-.4,1.86-.3,3.038-.223a17.83,17.83,0,0,0,3.065.036l4.628,4.621a4.414,4.414,0,0,0,.881,4.971l2.132,2.129a4.415,4.415,0,0,0,3.1,1.287h.017a4.375,4.375,0,0,0,3.118-1.287L60.6,37.957a4.418,4.418,0,0,0,0-6.238l-2.132-2.126a4.42,4.42,0,0,0-3.106-1.288h-.019a4.408,4.408,0,0,0-1.854.41l-3.547-3.544a4.581,4.581,0,0,0-.074-6.379,4.509,4.509,0,0,0-1.91-1.145,4.608,4.608,0,0,0,.086-.893,4.542,4.542,0,0,0-1.335-3.228A4.489,4.489,0,0,0,44.8,12.383a4.618,4.618,0,0,0,.088-.891A4.558,4.558,0,0,0,41.644,7.12a4.56,4.56,0,0,0-4.91-5.439l-7.9-1.5C27.53-.062,25.9-.22,24.81.771L24.778.8A4.562,4.562,0,0,0,18.883,5.17a4.454,4.454,0,0,0,.088.894,4.5,4.5,0,0,0-1.9,1.14,4.558,4.558,0,0,0-1.253,4.124,4.572,4.572,0,0,0-2.7,6.549,4.573,4.573,0,0,0-1.389,7.3L8.171,28.728a4.43,4.43,0,0,0-4.748.976L1.291,31.83a4.413,4.413,0,0,0,0,6.238Z" transform="translate(0 0)" fill="#d8dffc"/>
      </g>
    </g>
    <rect id="Retângulo_376" data-name="Retângulo 376" width="33" height="10" rx="5" transform="translate(10808.029 3904.485) rotate(-45)" fill="#ea575f"/>
    <g id="support" transform="translate(10758.106 3832)">
      <path id="União_1" data-name="União 1" d="M-10739.825-3754.051l-3.451-3.45a1.561,1.561,0,0,1,0-2.209,1.557,1.557,0,0,1,2.209,0l3.45,3.448a2.1,2.1,0,0,0,2.954,0l2.762-2.757a2.081,2.081,0,0,0,.6-1.477,2.053,2.053,0,0,0-.521-1.377,1.6,1.6,0,0,1-.437-.308,1.549,1.549,0,0,1-.313-.453l-15.846-15.824a1.615,1.615,0,0,1-.451-.311,1.534,1.534,0,0,1-.2-.243,2.1,2.1,0,0,0-2.549.313l-2.762,2.757a2.061,2.061,0,0,0-.607,1.474,2.069,2.069,0,0,0,.607,1.474l3.448,3.445a1.559,1.559,0,0,1,0,2.208,1.562,1.562,0,0,1-2.211,0l-3.447-3.445a5.167,5.167,0,0,1-1.525-3.686,5.186,5.186,0,0,1,1.525-3.688l2.762-2.754a5.226,5.226,0,0,1,5.913-1.026l5.205-5.195-.254-.251a5.425,5.425,0,0,1,0-7.665,5.408,5.408,0,0,1,2.082-1.3,5.37,5.37,0,0,1-.948-3.062,5.386,5.386,0,0,1,1.588-3.836,5.4,5.4,0,0,1,2.719-1.466,5.516,5.516,0,0,1-.216-1.526,5.375,5.375,0,0,1,1.59-3.826,5.338,5.338,0,0,1,2.717-1.469,5.385,5.385,0,0,1-.217-1.52,5.383,5.383,0,0,1,1.583-3.834,5.437,5.437,0,0,1,5.7-1.253,2.728,2.728,0,0,1,.235-.246c1.242-1.131,3.205-.934,4.776-.635l10.313,1.952a5.425,5.425,0,0,1,4.412,1.547,5.435,5.435,0,0,1,1.368,5.357,5.4,5.4,0,0,1,2.719,1.466,5.371,5.371,0,0,1,1.588,3.834,5.489,5.489,0,0,1-.216,1.52,5.35,5.35,0,0,1,2.719,1.472,5.355,5.355,0,0,1,1.585,3.828,5.494,5.494,0,0,1-.214,1.523,5.36,5.36,0,0,1,2.722,1.471,5.425,5.425,0,0,1,0,7.66l-.256.254,5.205,5.2a5.2,5.2,0,0,1,2.506-.64,5.187,5.187,0,0,1,3.688,1.523l2.763,2.754a5.179,5.179,0,0,1,1.522,3.688,5.169,5.169,0,0,1-1.522,3.686l-16.753,16.734a5.188,5.188,0,0,1-3.686,1.52,5.186,5.186,0,0,1-3.688-1.52l-2.762-2.759a5.17,5.17,0,0,1-1.523-3.686,5.183,5.183,0,0,1,.638-2.5l-6.415-6.407a22.433,22.433,0,0,1-4.112-.027c-1.806-.124-3.672-.254-4.344.438a.127.127,0,0,1-.02.019l-5.855,5.851a5.178,5.178,0,0,1,.791,2.767,5.18,5.18,0,0,1-1.522,3.688l-2.763,2.759a5.209,5.209,0,0,1-3.687,1.517A5.2,5.2,0,0,1-10739.825-3754.051Zm51.46-24.791-16.756,16.734a2.059,2.059,0,0,0-.607,1.471,2.069,2.069,0,0,0,.607,1.474l2.763,2.757a2.08,2.08,0,0,0,1.477.608,2.078,2.078,0,0,0,1.479-.608l16.753-16.731a2.069,2.069,0,0,0,.607-1.474,2.072,2.072,0,0,0-.607-1.477l-2.762-2.754a2.078,2.078,0,0,0-1.479-.607A2.07,2.07,0,0,0-10688.365-3778.842Zm-20.527,3.769a1.564,1.564,0,0,1,0,2.211l-1.391,1.388a6.272,6.272,0,0,1-1.028.826l5.159,5.151,14.4-14.38-5.058-5.049-1.053,1.053a1.558,1.558,0,0,1-1.1.456,1.555,1.555,0,0,1-1.106-.456,1.564,1.564,0,0,1,0-2.211l2.157-2.155a0,0,0,0,1,0,0l1.36-1.358a2.3,2.3,0,0,0,0-3.24,2.281,2.281,0,0,0-1.625-.67,2.28,2.28,0,0,0-1.623.667.175.175,0,0,1-.024.021l-1.336,1.339a1.557,1.557,0,0,1-1.1.456,1.558,1.558,0,0,1-1.107-.456,1.564,1.564,0,0,1,0-2.211l2.728-2.727a2.268,2.268,0,0,0,.672-1.623,2.261,2.261,0,0,0-.67-1.617,2.273,2.273,0,0,0-1.625-.672,2.268,2.268,0,0,0-1.623.67l-1.573,1.566a1.563,1.563,0,0,1-2.212-.005,1.561,1.561,0,0,1,.006-2.208l1.565-1.561,1.369-1.372a2.269,2.269,0,0,0,.673-1.623,2.265,2.265,0,0,0-.67-1.617,2.3,2.3,0,0,0-3.243-.008l-.207.205v0l-1.366,1.364a1.565,1.565,0,0,1-2.212,0,1.567,1.567,0,0,1,0-2.211l1.566-1.563c0-.006.011-.008.013-.014l1.361-1.353a2.3,2.3,0,0,0,0-3.245,2.3,2.3,0,0,0-1.944-.643c-.043.008-.089.016-.138.021a2.286,2.286,0,0,0-1.171.624l-4.466,4.466a5.4,5.4,0,0,1,.788,2.824,5.372,5.372,0,0,1-1.582,3.831,5.374,5.374,0,0,1-3.834,1.585h-.043a5.4,5.4,0,0,1-1.58,3.872,5.4,5.4,0,0,1-3.839,1.582l-.041,0c0,.013,0,.027,0,.041a5.378,5.378,0,0,1-1.59,3.834,5.38,5.38,0,0,1-3.831,1.579h-.038v.041a5.37,5.37,0,0,1-1.588,3.831,5.376,5.376,0,0,1-3.834,1.582,5.4,5.4,0,0,1-2.829-.791l-5.095,5.087,14.4,14.375,5.76-5.751c1.682-1.725,4.281-1.547,6.795-1.372,2.317.162,4.712.327,6.032-.994l1.391-1.39a1.559,1.559,0,0,1,1.1-.456A1.561,1.561,0,0,1-10708.893-3775.073Zm-31.854-17.765a2.3,2.3,0,0,0,0,3.242l1.355,1.35.008.008.008.008.2.194a2.273,2.273,0,0,0,1.625.672,2.272,2.272,0,0,0,1.623-.67,2.268,2.268,0,0,0,.672-1.623,2.265,2.265,0,0,0-.669-1.617l-1.566-1.566a2.283,2.283,0,0,0-1.628-.67A2.281,2.281,0,0,0-10740.746-3792.838Zm2.722-8.192a2.268,2.268,0,0,0-.67,1.62,2.274,2.274,0,0,0,.67,1.623l2.74,2.735v0l1.565,1.563a2.292,2.292,0,0,0,1.626.667,2.285,2.285,0,0,0,1.625-.667,2.267,2.267,0,0,0,.67-1.62,2.261,2.261,0,0,0-.67-1.617l-4.32-4.317a2.264,2.264,0,0,0-1.611-.656A2.285,2.285,0,0,0-10738.024-3801.03Zm4.093-6.82a2.273,2.273,0,0,0-.673,1.617,2.278,2.278,0,0,0,.67,1.623l1.348,1.347c.008.008.016.013.021.019l4.307,4.306a2.285,2.285,0,0,0,1.625.667,2.283,2.283,0,0,0,1.628-.67,2.293,2.293,0,0,0,0-3.242l-5.675-5.665a2.28,2.28,0,0,0-1.628-.672A2.269,2.269,0,0,0-10733.932-3807.85Zm4.085-6.82a2.268,2.268,0,0,0-.667,1.62,2.271,2.271,0,0,0,.667,1.617l7.05,7.039a2.276,2.276,0,0,0,1.625.67,2.282,2.282,0,0,0,1.623-.667,2.274,2.274,0,0,0,.666-1.623,2.272,2.272,0,0,0-.407-1.309,11.567,11.567,0,0,1-4.5-2.792,11.159,11.159,0,0,1-3.137-4.833,2.305,2.305,0,0,0-1.292-.395A2.286,2.286,0,0,0-10729.847-3814.67Zm5.907-1.412a1,1,0,0,0,.006.154v0a7.205,7.205,0,0,0,2.3,3.553,9.877,9.877,0,0,0,2.433,1.766l4.059-4.055-6.78-1.282a8.481,8.481,0,0,0-1.545-.18A2.072,2.072,0,0,0-10723.939-3816.082Zm-24.531,53.534-.006-.005a1.562,1.562,0,0,1-.019-2.208,1.562,1.562,0,0,1,2.211-.019,1.563,1.563,0,0,1,.021,2.211,1.56,1.56,0,0,1-1.117.47A1.541,1.541,0,0,1-10748.471-3762.548Zm42-15.635a1.559,1.559,0,0,1,.688-2.1l.008,0a1.563,1.563,0,0,1,2.1.691,1.566,1.566,0,0,1-.691,2.1,1.579,1.579,0,0,1-.707.167A1.563,1.563,0,0,1-10706.468-3778.183Zm-13.746-45.283v-6.971a1.565,1.565,0,0,1,1.563-1.563,1.564,1.564,0,0,1,1.563,1.563v6.971a1.562,1.562,0,0,1-1.563,1.563A1.564,1.564,0,0,1-10720.214-3823.467Zm20.109.246a1.564,1.564,0,0,1,0-2.211l5.691-5.683a1.564,1.564,0,0,1,2.211,0,1.565,1.565,0,0,1,0,2.211l-5.692,5.683a1.554,1.554,0,0,1-1.1.456A1.568,1.568,0,0,1-10700.1-3823.221Zm-39.3,0-5.694-5.683a1.563,1.563,0,0,1,0-2.211,1.565,1.565,0,0,1,2.212,0l5.694,5.686a1.559,1.559,0,0,1,0,2.209,1.547,1.547,0,0,1-1.106.459A1.561,1.561,0,0,1-10739.407-3823.221Z" transform="translate(10759 3832)" fill="#1e2541" stroke="#1e2541" stroke-width="1"/>
    </g>
  </g>
</svg>
