<svg xmlns="http://www.w3.org/2000/svg" xmlns:xlink="http://www.w3.org/1999/xlink" width="116.796" height="98.071" viewBox="0 0 116.796 98.071">
  <defs>
    <clipPath id="clip-path">
      <rect id="Retângulo_374" data-name="Retângulo 374" width="94.25" height="90" fill="#d8dffc"/>
    </clipPath>
  </defs>
  <g id="Grupo_685" data-name="Grupo 685" transform="translate(-10928.454 -3810)">
    <g id="Grupo_666" data-name="Grupo 666" transform="translate(10951 3810)">
      <g id="Grupo_665" data-name="Grupo 665" transform="translate(0 0)" clip-path="url(#clip-path)">
        <path id="Caminho_665" data-name="Caminho 665" d="M50.432,2.056l11.7,23.718a3.7,3.7,0,0,0,2.778,2.017L91.09,31.6a3.687,3.687,0,0,1,2.044,6.289L74.193,56.347a3.687,3.687,0,0,0-1.061,3.264L77.6,85.679a3.689,3.689,0,0,1-5.351,3.89L48.842,77.26a3.694,3.694,0,0,0-3.433,0L22,89.569a3.691,3.691,0,0,1-5.354-3.89l4.473-26.068a3.687,3.687,0,0,0-1.061-3.264L1.119,37.884A3.686,3.686,0,0,1,3.161,31.6l26.176-3.8a3.7,3.7,0,0,0,2.778-2.017l11.7-23.718a3.687,3.687,0,0,1,6.614,0" transform="translate(0.001 -0.001)" fill="#d8dffc"/>
      </g>
    </g>
    <g id="star" transform="translate(10929 3805.316)">
      <g id="Grupo_663" data-name="Grupo 663" transform="translate(0 10.684)">
        <g id="Grupo_658" data-name="Grupo 658" transform="translate(29.844 61.35)">
          <path id="Caminho_641" data-name="Caminho 641" d="M169.478,343.33h-7.609a1.865,1.865,0,1,1,0-3.73h7.609a1.865,1.865,0,0,1,0,3.73Z" transform="translate(-160.004 -339.6)" fill="#1e2541" stroke="#1e2541" stroke-width="1"/>
        </g>
        <g id="Grupo_659" data-name="Grupo 659" transform="translate(54.316 61.35)">
          <path id="Caminho_642" data-name="Caminho 642" d="M300.678,343.33h-7.609a1.865,1.865,0,0,1,0-3.73h7.609a1.865,1.865,0,0,1,0,3.73Z" transform="translate(-291.204 -339.6)" fill="#1e2541" stroke="#1e2541" stroke-width="1"/>
        </g>
        <g id="Grupo_660" data-name="Grupo 660" transform="translate(45.854 61.356)">
          <path id="Caminho_643" data-name="Caminho 643" d="M247.7,343.355a1.865,1.865,0,1,1,1.828-1.5A1.881,1.881,0,0,1,247.7,343.355Z" transform="translate(-245.835 -339.63)" fill="#1e2541" stroke="#1e2541" stroke-width="1"/>
        </g>
        <g id="Grupo_662" data-name="Grupo 662" transform="translate(35.058 68.699)">
          <g id="Grupo_661" data-name="Grupo 661">
            <path id="Caminho_644" data-name="Caminho 644" d="M211.475,382.729H189.823a1.865,1.865,0,1,1,0-3.73h21.652a1.865,1.865,0,0,1,0,3.73Z" transform="translate(-187.958 -378.999)" fill="#1e2541" stroke="#1e2541" stroke-width="1"/>
          </g>
        </g>
        <path id="Caminho_645" data-name="Caminho 645" d="M197.72,144.619a12.021,12.021,0,1,0-15.862,0,11.274,11.274,0,0,0-7.251,10.519v3.2a1.865,1.865,0,0,0,1.865,1.865h26.633a1.865,1.865,0,0,0,1.865-1.865v-3.2A11.274,11.274,0,0,0,197.72,144.619ZM189.789,127.3a8.292,8.292,0,1,1-8.291,8.292A8.3,8.3,0,0,1,189.789,127.3Zm11.451,29.17h-22.9v-1.333a7.533,7.533,0,0,1,7.524-7.524h7.854a7.533,7.533,0,0,1,7.524,7.524v1.333Z" transform="translate(-142.04 -102.514)" fill="#1e2541" stroke="#1e2541" stroke-width="1"/>
        <path id="Caminho_646" data-name="Caminho 646" d="M22.515,102.2a6.948,6.948,0,0,1-6.894-7.541l2.114-24.367L1.7,51.819a6.935,6.935,0,0,1,3.671-11.3L29.2,35,41.81,14.043a6.933,6.933,0,0,1,11.881,0L66.3,35l23.825,5.519a6.935,6.935,0,0,1,3.672,11.3L77.766,70.289,79.88,94.657a6.933,6.933,0,0,1-9.612,6.984L47.75,92.1l-22.518,9.541a6.958,6.958,0,0,1-2.718.557ZM47.75,14.415a3.178,3.178,0,0,0-2.744,1.552L31.988,37.6a1.865,1.865,0,0,1-1.177.855l-24.594,5.7a3.2,3.2,0,0,0-1.7,5.221L21.07,68.441a1.866,1.866,0,0,1,.45,1.384L19.337,94.979a3.2,3.2,0,0,0,4.44,3.227l23.245-9.85a1.864,1.864,0,0,1,1.455,0l23.245,9.85a3.2,3.2,0,0,0,4.44-3.227L73.98,69.825a1.866,1.866,0,0,1,.45-1.384L90.979,49.374a3.2,3.2,0,0,0-1.7-5.221l-24.594-5.7a1.865,1.865,0,0,1-1.177-.855L50.494,15.967a3.176,3.176,0,0,0-2.744-1.552Z" transform="translate(0 -10.684)" fill="#1e2541" stroke="#1e2541" stroke-width="1"/>
      </g>
    </g>
    <circle id="Elipse_73" data-name="Elipse 73" cx="9" cy="9" r="9" transform="translate(10968 3840)" fill="#ea575f"/>
  </g>
</svg>
