<svg xmlns="http://www.w3.org/2000/svg" xmlns:xlink="http://www.w3.org/1999/xlink" width="102" height="102" viewBox="0 0 102 102">
  <defs>
    <clipPath id="clip-path">
      <rect id="Ret창ngulo_332" data-name="Ret창ngulo 332" width="51.956" height="57" fill="#d8dffc"/>
    </clipPath>
    <clipPath id="clip-path-2">
      <rect id="Ret창ngulo_331" data-name="Ret창ngulo 331" width="102" height="102" fill="#222b4c"/>
    </clipPath>
  </defs>
  <g id="Grupo_842" data-name="Grupo 842" transform="translate(-1448 -5843)">
    <g id="Grupo_841" data-name="Grupo 841">
      <g id="Grupo_607" data-name="Grupo 607" transform="translate(1483 5872.2)">
        <g id="Grupo_587" data-name="Grupo 587" clip-path="url(#clip-path)">
          <path id="Caminho_604" data-name="Caminho 604" d="M28.864,0V27.383a8.659,8.659,0,1,1-5.773,0V0L.485,33.91a2.886,2.886,0,0,0,.361,3.642A36.448,36.448,0,0,1,10.839,57a17.188,17.188,0,0,1,6.48-1.284H34.637A17.192,17.192,0,0,1,41.117,57,36.446,36.446,0,0,1,51.11,37.552a2.886,2.886,0,0,0,.361-3.642Z" transform="translate(0)" fill="#d8dffc"/>
        </g>
      </g>
      <g id="Grupo_585" data-name="Grupo 585" transform="translate(1448 5843)" clip-path="url(#clip-path-2)">
        <path id="Caminho_602" data-name="Caminho 602" d="M99.092,0H87.129a2.991,2.991,0,0,0-2.991,2.991V5.981H59.5a8.97,8.97,0,0,0-16.915,0H17.944V2.991A2.991,2.991,0,0,0,14.953,0H2.991A2.991,2.991,0,0,0,0,2.991V14.953a2.991,2.991,0,0,0,2.991,2.991H14.953a2.991,2.991,0,0,0,2.991-2.991V11.923H30.381A39.291,39.291,0,0,0,12.244,42.556a8.968,8.968,0,1,0,5.994.059A33.393,33.393,0,0,1,43.005,12.956a8.967,8.967,0,0,0,16.072,0A33.393,33.393,0,0,1,83.845,42.616a8.975,8.975,0,1,0,5.994-.06A39.221,39.221,0,0,0,71.7,11.963H84.138v2.991a2.991,2.991,0,0,0,2.991,2.991H99.092a2.991,2.991,0,0,0,2.991-2.991V2.991A2.991,2.991,0,0,0,99.092,0M11.963,11.963H5.981V5.981h5.981Zm3.19,42.069a2.991,2.991,0,1,1,2.991-2.991,2.994,2.994,0,0,1-2.991,2.991m71.777,0a2.991,2.991,0,1,1,2.991-2.991,2.994,2.994,0,0,1-2.991,2.991M51.041,11.963a2.991,2.991,0,1,1,2.991-2.991,2.994,2.994,0,0,1-2.991,2.991m45.06,0H90.12V5.981H96.1Z" fill="#222b4c"/>
        <path id="Caminho_603" data-name="Caminho 603" d="M150.4,122.34l0,0-.027-.038c-.041-.059-.084-.117-.13-.173a2.99,2.99,0,0,0-4.788.173l-.027.038,0,0L121.5,158.228a2.991,2.991,0,0,0,.374,3.774,37.888,37.888,0,0,1,10.8,22.111,15.407,15.407,0,0,0-1.338,1.212,15.159,15.159,0,0,0-4.356,10.649,2.991,2.991,0,0,0,2.991,2.991H165.86a2.991,2.991,0,0,0,2.991-2.991,15.16,15.16,0,0,0-4.356-10.649,15.41,15.41,0,0,0-1.338-1.212A37.885,37.885,0,0,1,173.956,162a2.991,2.991,0,0,0,.374-3.774ZM147.916,156.9a2.991,2.991,0,1,1-2.991,2.991,2.994,2.994,0,0,1,2.991-2.991m-14.444,36.088a9.136,9.136,0,0,1,8.462-6.181H153.9a9.135,9.135,0,0,1,8.462,6.181Zm24.063-11.707a14.7,14.7,0,0,0-3.638-.455H141.935a14.684,14.684,0,0,0-3.638.455,43.885,43.885,0,0,0-10.5-21.712l17.126-25.689V151.43a8.972,8.972,0,1,0,5.981,0V133.877l17.126,25.689a43.878,43.878,0,0,0-10.5,21.712" transform="translate(-96.875 -96.883)" fill="#222b4c"/>
      </g>
    </g>
    <circle id="Elipse_72" data-name="Elipse 72" cx="4" cy="4" r="4" transform="translate(1495 5902)" fill="#ea575f"/>
  </g>
</svg>
