<svg xmlns="http://www.w3.org/2000/svg" xmlns:xlink="http://www.w3.org/1999/xlink" width="106" height="96.062" viewBox="0 0 106 96.062">
  <defs>
    <clipPath id="clip-path">
      <rect id="Retângulo_345" data-name="Retângulo 345" width="82.2" height="77.062" fill="#1e2541"/>
    </clipPath>
  </defs>
  <g id="Grupo_837" data-name="Grupo 837" transform="translate(-378 -5335)">
    <rect id="Retângulo_350" data-name="Retângulo 350" width="80" height="54" rx="8" transform="translate(404 5335)" fill="#d8dffc"/>
    <g id="computer" transform="translate(369.14 5334)">
      <g id="Grupo_583" data-name="Grupo 583" transform="translate(34.155 53.745)">
        <path id="Caminho_600" data-name="Caminho 600" d="M37.349,32.186a2.024,2.024,0,0,1-2.023-2.023V26.116a6.077,6.077,0,0,0-6.07-6.07H17.116a6.077,6.077,0,0,0-6.07,6.07v4.047a2.023,2.023,0,1,1-4.047,0V26.116A10.128,10.128,0,0,1,17.116,16h12.14A10.128,10.128,0,0,1,39.373,26.116v4.047A2.024,2.024,0,0,1,37.349,32.186Z" transform="translate(-7 -16)" fill="#3d508b" stroke="#3d508b" stroke-width="1"/>
      </g>
      <g id="Grupo_582" data-name="Grupo 582" transform="translate(-150 -6.814)">
        <path id="Caminho_599" data-name="Caminho 599" d="M17.093,27.186a8.093,8.093,0,1,1,8.093-8.093A8.1,8.1,0,0,1,17.093,27.186Zm0-12.14a4.047,4.047,0,1,0,4.047,4.047A4.051,4.051,0,0,0,17.093,15.047Z" transform="translate(183.246 31.326)" fill="#3d508b" stroke="#3d508b" stroke-width="1"/>
      </g>
      <g id="Grupo_599" data-name="Grupo 599" transform="translate(8.86 20)">
        <g id="Grupo_598" data-name="Grupo 598" clip-path="url(#clip-path)">
          <path id="Caminho_621" data-name="Caminho 621" d="M77.383,23.279V48.164H4.816V7.225A2.411,2.411,0,0,1,7.225,4.816H50.572V0H7.225A7.232,7.232,0,0,0,0,7.225V55.388a7.233,7.233,0,0,0,7.225,7.225h20.9l-3.211,9.633h-7.9a2.408,2.408,0,1,0,0,4.816H65.182a2.408,2.408,0,0,0,0-4.816h-7.9l-3.211-9.633h20.9A7.233,7.233,0,0,0,82.2,55.388V23.279ZM29.992,72.245,33.2,62.613H49l3.211,9.633ZM77.383,55.388A2.412,2.412,0,0,1,74.975,57.8H7.225a2.411,2.411,0,0,1-2.408-2.408V52.98H77.383Z" fill="#1e2541"/>
        </g>
      </g>
    </g>
    <g id="Grupo_606" data-name="Grupo 606" transform="translate(23 4)">
      <g id="Grupo_584" data-name="Grupo 584" transform="translate(408.481 5334)">
        <path id="Caminho_601" data-name="Caminho 601" d="M49.2,25.215a1.625,1.625,0,0,1-1.035-.366l-7.052-5.727v1.365a4.8,4.8,0,0,1-4.852,4.728H16.852A4.8,4.8,0,0,1,12,20.487V4.728A4.8,4.8,0,0,1,16.852,0h19.41a4.8,4.8,0,0,1,4.852,4.728V6.093L48.166.369A1.663,1.663,0,0,1,49.887.151a1.568,1.568,0,0,1,.932,1.425V23.639a1.576,1.576,0,0,1-.932,1.428A1.677,1.677,0,0,1,49.2,25.215ZM16.852,3.152a1.6,1.6,0,0,0-1.617,1.576v15.76a1.6,1.6,0,0,0,1.617,1.576h19.41a1.6,1.6,0,0,0,1.617-1.576V15.76a1.576,1.576,0,0,1,.932-1.428,1.648,1.648,0,0,1,1.721.217l7.052,5.727V4.939l-7.052,5.724a1.641,1.641,0,0,1-1.721.217,1.568,1.568,0,0,1-.932-1.425V4.728a1.6,1.6,0,0,0-1.617-1.576Z" transform="translate(-7 11)" fill="#222b4c" stroke="#222b4c" stroke-width="1"/>
      </g>
      <rect id="Retângulo_339" data-name="Retângulo 339" width="24" height="19" rx="3" transform="translate(416 5348)" fill="#ea575f"/>
      <rect id="Retângulo_340" data-name="Retângulo 340" width="3" height="13" transform="translate(440 5352)" fill="#222b4c"/>
    </g>
  </g>
</svg>
