<svg xmlns="http://www.w3.org/2000/svg" width="81.872" height="75.448" viewBox="0 0 81.872 75.448">
  <g id="Grupo_684" data-name="Grupo 684" transform="translate(-10935 -4218.469)">
    <path id="Uni찾o_2" data-name="Uni찾o 2" d="M42.037,68.509c-8.054,5.184-15.892,6.616-20.9,2.977-5.875-4.269-6.316-14.4-2.049-25.714C10.1,31.97,7.791,18.157,14.34,12.465,19.794,7.724,29.972,9.853,40.4,16.947,49.569,9.9,58.932,7.478,64.631,11.619c6.921,5.028,6.3,18.187-.67,31.835,6.246,11.867,7.239,22.934,1.551,27.878a11.273,11.273,0,0,1-7.6,2.539C53.315,73.871,47.771,71.976,42.037,68.509Z" transform="translate(10947.354 4208.875)" fill="#d8dffc"/>
    <rect id="Ret창ngulo_388" data-name="Ret창ngulo 388" width="14" height="22" transform="translate(10962 4249)" fill="#ea575f"/>
    <g id="data-science" transform="translate(10935 4225.502)">
      <path id="Caminho_647" data-name="Caminho 647" d="M187.153,151.5H166.99v3.847H165v3.98h1.99v4.112H165v3.98h1.99v4.112H165v3.98h1.99v3.847h20.163V175.51h1.99v-3.98h-1.99v-4.112h1.99v-3.98h-1.99v-4.112h1.99v-3.98h-1.99Zm-3.98,15.918h-12.2v-3.98h12.2Zm0,7.959h-12.2V171.4h12.2Zm-12.2-15.918v-3.98h12.2v3.98Zm0,0" transform="translate(-143.113 -130.971)" fill="#1e2541"/>
      <path id="Caminho_648" data-name="Caminho 648" d="M66.788,42.072a45.2,45.2,0,0,0-2.8-7.631c4.109-8.8,5.119-17.466,2.354-23.945A5.965,5.965,0,0,0,57.919,2.07C51.441-.7,42.773.315,33.974,4.423a45.269,45.269,0,0,0-7.631-2.8C17.376-.729,9.78.63,4.956,5.454s-6.184,12.42-3.827,21.387a45.194,45.194,0,0,0,2.8,7.631c-4.109,8.8-5.119,17.466-2.354,23.945A5.965,5.965,0,0,0,10,66.843,20.8,20.8,0,0,0,18.2,68.4,37.931,37.931,0,0,0,33.943,64.49a45.22,45.22,0,0,0,7.631,2.8,32.2,32.2,0,0,0,8.155,1.129c5.4,0,9.955-1.678,13.232-4.956,4.825-4.824,6.184-12.42,3.827-21.387ZM61.94,4.486a1.989,1.989,0,1,1-1.989,1.989A1.991,1.991,0,0,1,61.94,4.486ZM40.229,6.18c6.1-2.046,11.64-2.236,15.808-.581a5.964,5.964,0,0,0,5.9,6.844,6.041,6.041,0,0,0,.877-.065c1.655,4.168,1.464,9.7-.581,15.808-.193.576-.4,1.154-.627,1.733A65.411,65.411,0,0,0,51.477,16.939,65.408,65.408,0,0,0,38.5,6.807c.579-.224,1.157-.434,1.733-.627ZM59.565,34.445a60.215,60.215,0,0,1-10.9,14.717,60.227,60.227,0,0,1-14.717,10.9,59.868,59.868,0,0,1-14.693-10.9,59.868,59.868,0,0,1-10.9-14.694A62.172,62.172,0,0,1,33.971,8.85a59.868,59.868,0,0,1,14.693,10.9A59.856,59.856,0,0,1,59.565,34.445ZM4.977,25.831C2.995,18.288,3.986,12.05,7.77,8.268c2.509-2.509,6.1-3.79,10.431-3.79a28.239,28.239,0,0,1,7.132,1,39.225,39.225,0,0,1,4.11,1.336A66.844,66.844,0,0,0,6.312,29.94a39.223,39.223,0,0,1-1.336-4.11Zm1,38.6a1.989,1.989,0,1,1,1.989-1.989A1.991,1.991,0,0,1,5.977,64.428Zm21.711-1.694c-6.1,2.045-11.64,2.236-15.808.581A5.964,5.964,0,0,0,5.1,56.536c-1.655-4.169-1.464-9.7.581-15.808q.29-.865.628-1.734A65.411,65.411,0,0,0,16.441,51.975,65.393,65.393,0,0,0,29.421,62.107c-.579.224-1.157.434-1.733.627Zm32.46-2.088c-3.783,3.783-10.02,4.775-17.563,2.793A39.155,39.155,0,0,1,38.477,62.1a65.18,65.18,0,0,0,13-10.129,65.167,65.167,0,0,0,10.128-13,39.216,39.216,0,0,1,1.336,4.109c1.982,7.543.99,13.781-2.793,17.563Zm0,0" transform="translate(0)" fill="#1e2541"/>
    </g>
  </g>
</svg>
