<svg xmlns="http://www.w3.org/2000/svg" xmlns:xlink="http://www.w3.org/1999/xlink" width="114" height="109" viewBox="0 0 114 109">
  <defs>
    <clipPath id="clip-path">
      <rect id="Ret창ngulo_343" data-name="Ret창ngulo 343" width="98.134" height="92" fill="#1e2541"/>
    </clipPath>
  </defs>
  <g id="Grupo_839" data-name="Grupo 839" transform="translate(-372 -5834)">
    <rect id="Ret창ngulo_347" data-name="Ret창ngulo 347" width="90" height="63" rx="7" transform="translate(396 5834)" fill="#d8dffc"/>
    <g id="Grupo_600" data-name="Grupo 600" transform="translate(372 5851)">
      <g id="Grupo_596" data-name="Grupo 596" clip-path="url(#clip-path)">
        <path id="Caminho_619" data-name="Caminho 619" d="M89.509,0H8.625A8.634,8.634,0,0,0,0,8.625v57.5A8.635,8.635,0,0,0,8.625,74.75H33.577l-3.833,11.5H20.317a2.875,2.875,0,1,0,0,5.75h57.5a2.875,2.875,0,0,0,0-5.75H68.389l-3.833-11.5H89.509a8.636,8.636,0,0,0,8.625-8.625V8.625A8.635,8.635,0,0,0,89.509,0m-53.7,86.25,3.833-11.5H58.494l3.833,11.5ZM92.384,66.125A2.879,2.879,0,0,1,89.509,69H8.625A2.879,2.879,0,0,1,5.75,66.125V63.25H92.384ZM31.353,40.976l-2.616-2.615L32.8,34.295l2.616,2.616a2.876,2.876,0,0,0,3.494.443,19.98,19.98,0,0,1,5.126-2.133,2.874,2.874,0,0,0,2.154-2.783V28.75h5.75v3.688A2.873,2.873,0,0,0,54.1,35.221a19.949,19.949,0,0,1,5.126,2.134,2.877,2.877,0,0,0,3.494-.444l2.615-2.616L69.4,38.361l-2.615,2.616a2.873,2.873,0,0,0-.444,3.493A19.905,19.905,0,0,1,68.47,49.6a2.876,2.876,0,0,0,2.783,2.154h3.688V57.5H63.151a14.375,14.375,0,1,0-28.169,0H23.192V51.75H26.88A2.875,2.875,0,0,0,29.663,49.6,20,20,0,0,1,31.8,44.47a2.875,2.875,0,0,0-.443-3.494M57.692,54.625A8.676,8.676,0,0,1,57.2,57.5H40.936a8.625,8.625,0,1,1,16.756-2.875M92.384,57.5H80.692V48.875A2.875,2.875,0,0,0,77.817,46H73.375a25.744,25.744,0,0,0-1.025-2.462L75.5,40.394a2.876,2.876,0,0,0,0-4.066L67.362,28.2a2.874,2.874,0,0,0-4.065,0l-3.144,3.145a25.483,25.483,0,0,0-2.461-1.025V25.875A2.875,2.875,0,0,0,54.817,23h-11.5a2.875,2.875,0,0,0-2.875,2.875v4.442a25.47,25.47,0,0,0-2.462,1.025L34.836,28.2a2.876,2.876,0,0,0-4.066,0l-8.131,8.131a2.875,2.875,0,0,0,0,4.066l3.145,3.145A25.567,25.567,0,0,0,24.759,46H20.317a2.875,2.875,0,0,0-2.875,2.875V57.5H5.75V8.625A2.878,2.878,0,0,1,8.625,5.75H89.509a2.879,2.879,0,0,1,2.875,2.875Z" fill="#1e2541"/>
        <path id="Caminho_620" data-name="Caminho 620" d="M297.426,48a8.625,8.625,0,1,0,8.625,8.625A8.634,8.634,0,0,0,297.426,48m0,11.5a2.875,2.875,0,1,1,2.875-2.875,2.879,2.879,0,0,1-2.875,2.875" transform="translate(-219.609 -36.5)" fill="#1e2541"/>
      </g>
    </g>
  </g>
</svg>
