<svg xmlns="http://www.w3.org/2000/svg" xmlns:xlink="http://www.w3.org/1999/xlink" width="98.443" height="91.443" viewBox="0 0 98.443 91.443">
  <defs>
    <clipPath id="clip-path">
      <rect id="Retângulo_377" data-name="Retângulo 377" width="82.943" height="82.944" transform="translate(0 0)" fill="#d8dffc"/>
    </clipPath>
  </defs>
  <g id="Grupo_674" data-name="Grupo 674" transform="translate(-10766.5 -3953)">
    <g id="Grupo_671" data-name="Grupo 671" transform="translate(10782 3953)">
      <g id="Grupo_670" data-name="Grupo 670" clip-path="url(#clip-path)">
        <path id="Caminho_667" data-name="Caminho 667" d="M1.866,51.532H12.911l1.252,3.023-7.81,7.81a1.865,1.865,0,0,0,0,2.639L17.941,76.591a1.911,1.911,0,0,0,2.639,0l7.809-7.81,3.024,1.252V81.078a1.868,1.868,0,0,0,1.865,1.866H49.666a1.868,1.868,0,0,0,1.866-1.866V70.034l3.022-1.252,7.81,7.81a1.911,1.911,0,0,0,2.639,0L76.59,65a1.865,1.865,0,0,0,0-2.639l-1.272-1.272h5.76a1.868,1.868,0,0,0,1.865-1.866V12.792l-31.55-.867h.137V1.865A1.868,1.868,0,0,0,49.666,0H33.276a1.868,1.868,0,0,0-1.865,1.866V12.911l-3.024,1.252L20.578,6.354a1.911,1.911,0,0,0-2.639,0L6.352,17.941a1.866,1.866,0,0,0,0,2.64l7.81,7.809L12.91,31.413H1.866A1.869,1.869,0,0,0,0,33.277V49.666a1.868,1.868,0,0,0,1.866,1.866" fill="#d8dffc"/>
      </g>
    </g>
    <rect id="Retângulo_378" data-name="Retângulo 378" width="10" height="16" transform="translate(10803 4003)" fill="#ea575f"/>
    <rect id="Retângulo_379" data-name="Retângulo 379" width="10" height="32" transform="translate(10826 3987)" fill="#ea575f"/>
    <path id="optimization" d="M83.32,16.4l-3.7,3.7h-4.9a1.366,1.366,0,0,0-1.366,1.366v4.9L68.7,31.023H63.8a1.366,1.366,0,0,0-1.366,1.366v4.9l-4.663,4.663h-4.9a1.366,1.366,0,0,0-1.366,1.366v4.9L45.48,54.24h-4.67a16.328,16.328,0,0,1,7.337-11.082l-1.473-2.3a19.122,19.122,0,0,0,10.3,35.234H74.513a25.948,25.948,0,0,1-43.49-19.12H28.292a28.645,28.645,0,0,0,.824,6.829H18.731V50.143H29.657a1.366,1.366,0,0,0,1.262-.843l2.206-5.326a1.366,1.366,0,0,0-.3-1.488L25.1,34.76,34.76,25.1l7.726,7.726a1.365,1.365,0,0,0,1.488.3L49.3,30.919a1.366,1.366,0,0,0,.843-1.262V18.731H63.8v8.194h2.731v-9.56A1.366,1.366,0,0,0,65.166,16H48.777a1.366,1.366,0,0,0-1.366,1.366V28.745l-3.64,1.508-8.046-8.046a1.366,1.366,0,0,0-1.932,0L22.206,33.795a1.366,1.366,0,0,0,0,1.932l8.046,8.046-1.508,3.64H17.366A1.366,1.366,0,0,0,16,48.777V65.166a1.366,1.366,0,0,0,1.366,1.366H28.745l1.508,3.64-8.046,8.046a1.366,1.366,0,0,0,0,1.932L33.795,91.737a1.366,1.366,0,0,0,1.932,0l8.046-8.046,3.64,1.508V96.578a1.366,1.366,0,0,0,1.366,1.366H65.166a1.366,1.366,0,0,0,1.366-1.366V85.2l3.64-1.508,8.046,8.046a1.366,1.366,0,0,0,1.932,0L91.737,80.149a1.366,1.366,0,0,0,0-1.932l-2.125-2.125h6.966a1.366,1.366,0,0,0,1.366-1.366V28.292a1.366,1.366,0,0,0-1.366-1.366H85.652a1.366,1.366,0,0,0-1.366,1.366v9.56h-9.56a1.366,1.366,0,0,0-1.366,1.366v6.829H63.8a1.366,1.366,0,0,0-1.366,1.366v8.194h-9.56a1.366,1.366,0,0,0-1.366,1.366v5.463H41.52a16.314,16.314,0,0,1-.937-5.463h5.463a1.366,1.366,0,0,0,.966-.4l6.429-6.429h4.9A1.366,1.366,0,0,0,59.7,48.777v-4.9l4.663-4.663h4.9a1.366,1.366,0,0,0,1.366-1.366v-4.9l4.663-4.663h4.9a1.366,1.366,0,0,0,1.366-1.366v-4.9l3.3-3.3H97.943V16H84.286a1.366,1.366,0,0,0-.966.4ZM34.76,88.84,25.1,79.183l7.348-7.348a28.9,28.9,0,0,0,9.657,9.657Zm15.383,6.372V84.828a28.676,28.676,0,0,0,13.657,0V95.212Zm38.7-16.029L79.183,88.84l-7.346-7.347a28.69,28.69,0,0,0,6.51-5.4h7.4ZM87.018,29.657h8.194v43.7H87.018ZM76.092,40.583h8.194V73.36H76.092ZM65.166,48.777H73.36V73.36H65.166ZM54.24,58.337h8.194V73.36H56.972a16.423,16.423,0,0,1-2.73-.229Zm-2.731,6.829v7.257a16.477,16.477,0,0,1-8.726-7.257Zm5.463-17.754H54.24V44.68h2.731ZM67.9,36.486H65.166V33.754H67.9ZM78.823,25.56H76.092V22.829h2.731Z" transform="translate(10751 3946)" fill="#1e2541" stroke="#1e2541" stroke-width="1"/>
  </g>
</svg>
