<svg xmlns="http://www.w3.org/2000/svg" width="98.375" height="98.375" viewBox="0 0 98.375 98.375">
  <g id="growth" transform="translate(0.5 0.5)">
    <path id="Caminho_557" data-name="Caminho 557" d="M208.115,304a8.115,8.115,0,0,1,8.115,8.115c0,6.492-8.115,11.36-8.115,11.36S200,318.606,200,312.115A8.115,8.115,0,0,1,208.115,304Zm0,0" transform="translate(-159.427 -242.329)" fill="#ea575f"/>
    <path id="Caminho_560" data-name="Caminho 560" d="M216.229,240l-3.246,6.492h-9.738L200,240Zm0,0" transform="translate(-152.718 -191.313)" fill="#d8dffc"/>
    <g id="Grupo_511" data-name="Grupo 511" transform="translate(31.681 4.498)">
      <path id="Caminho_558" data-name="Caminho 558" d="M135.454,176.229l-1.623,3.246h-9.1a1.623,1.623,0,0,1-1.542-2.142l5.031-15.109A3.26,3.26,0,0,1,131.3,160h2.532v14.606a1.623,1.623,0,0,0,1.623,1.623Zm0,0" transform="translate(-123.099 -129.165)" fill="#d8dffc"/>
      <path id="Caminho_559" data-name="Caminho 559" d="M308.269,177.333a1.623,1.623,0,0,1-1.542,2.142h-9.1L296,176.229a1.623,1.623,0,0,0,1.623-1.623V160h2.532a3.26,3.26,0,0,1,3.083,2.224Zm0,0" transform="translate(-260.924 -129.164)" fill="#d8dffc"/>
      <path id="Caminho_561" data-name="Caminho 561" d="M188.983,55.065h-11.36A1.623,1.623,0,0,1,176,53.442V28.417a22.784,22.784,0,0,1,7.4-16.781C185.608,9.623,187.75,8,188.983,8s3.376,1.623,5.583,3.636a22.784,22.784,0,0,1,7.4,16.781V53.442a1.623,1.623,0,0,1-1.623,1.623Zm0,0" transform="translate(-165.268 -8)" fill="#d8dffc"/>
    </g>
    <g id="Grupo_510" data-name="Grupo 510" transform="translate(0 0)">
      <path id="Caminho_562" data-name="Caminho 562" d="M115.718,52.208a3.253,3.253,0,0,0,2.632,1.349h9.109a1.623,1.623,0,0,0,1.453-.9l1.174-2.348h1.239l2.8,5.594a1.623,1.623,0,0,0,1.453.9h9.738a1.622,1.622,0,0,0,1.46-.9l2.789-5.594H150.8l1.174,2.348a1.623,1.623,0,0,0,1.453.9h9.107a3.246,3.246,0,0,0,3.084-4.273l-5.051-15.12a4.868,4.868,0,0,0-4.61-3.328h-.907V22.044a24.44,24.44,0,0,0-7.933-17.987C143.182.463,141.485,0,140.443,0s-2.741.463-6.675,4.057a24.441,24.441,0,0,0-7.932,17.987v8.791h-.907a4.868,4.868,0,0,0-4.61,3.328l-5.047,15.12a3.256,3.256,0,0,0,.446,2.924Zm28.591,1.349h-7.731l-1.623-3.246h10.977Zm11.648-19.475a1.622,1.622,0,0,1,1.54,1.11l5.038,15.119h-8.1L154,49.442a3.225,3.225,0,0,0,1.053-2.377V34.082ZM129.082,22.044a21.184,21.184,0,0,1,6.878-15.58c3.385-3.106,4.449-3.218,4.483-3.218s1.105.112,4.492,3.21A21.193,21.193,0,0,1,151.8,22.044V47.065h-9.737V35.7H138.82v11.36h-9.738ZM123.391,35.19a1.623,1.623,0,0,1,1.538-1.109h.907V47.065a3.225,3.225,0,0,0,1.053,2.377l-.433.869h-8.1Zm0,0" transform="translate(-91.755 0)" fill="#1e2541" stroke="#1e2541" stroke-width="1"/>
      <path id="Caminho_565" data-name="Caminho 565" d="M192,305.738c0,7.326,8.54,12.534,8.9,12.751a1.624,1.624,0,0,0,1.672,0c.361-.217,8.9-5.425,8.9-12.751a9.738,9.738,0,1,0-19.475,0Zm16.229,0c0,4.351-4.568,8.046-6.492,9.413-1.923-1.363-6.492-5.058-6.492-9.413a6.492,6.492,0,1,1,12.983,0Zm0,0" transform="translate(-153.05 -235.952)" fill="#1e2541" stroke="#1e2541" stroke-width="1"/>
      <path id="Caminho_566" data-name="Caminho 566" d="M307.246,280H304a11.373,11.373,0,0,0,11.36,11.36v-3.246A8.124,8.124,0,0,1,307.246,280Zm0,0" transform="translate(-242.329 -223.198)" fill="#1e2541" stroke="#1e2541" stroke-width="1"/>
      <path id="Caminho_567" data-name="Caminho 567" d="M120,288.115v3.246A11.373,11.373,0,0,0,131.36,280h-3.246A8.124,8.124,0,0,1,120,288.115Zm0,0" transform="translate(-95.656 -223.198)" fill="#1e2541" stroke="#1e2541" stroke-width="1"/>
      <path id="Caminho_568" data-name="Caminho 568" d="M376,320h3.246v3.246H376Zm0,0" transform="translate(-299.723 -255.083)" fill="#1e2541" stroke="#1e2541" stroke-width="1"/>
      <path id="Caminho_569" data-name="Caminho 569" d="M88,320h3.246v3.246H88Zm0,0" transform="translate(-70.148 -255.083)" fill="#1e2541" stroke="#1e2541" stroke-width="1"/>
      <path id="Caminho_578" data-name="Caminho 578" d="M88.384,374.732A9.721,9.721,0,0,0,81.146,358.5c-.183,0-.368,0-.55.016a9.738,9.738,0,0,0-18.513.442,4.847,4.847,0,0,0-6.9,4.411h3.246a1.623,1.623,0,0,1,3.246,0,2.35,2.35,0,0,1-.023.279,1.624,1.624,0,0,0,2.448,1.568,1.583,1.583,0,0,1,.821-.224,1.623,1.623,0,1,1,0,3.246v3.246a4.859,4.859,0,1,0,0-9.718v-.02A6.492,6.492,0,0,1,77.795,360.6a1.621,1.621,0,0,0,1.962,1.3,6.2,6.2,0,0,1,1.389-.151,6.492,6.492,0,1,1,0,12.983H16.229a6.492,6.492,0,1,1,0-12.983,6.224,6.224,0,0,1,1.391.155,1.624,1.624,0,0,0,1.96-1.3,6.492,6.492,0,0,1,12.878,1.144v.021a4.859,4.859,0,1,0,0,9.716V368.24a1.623,1.623,0,1,1,0-3.246,1.576,1.576,0,0,1,.821.224,1.624,1.624,0,0,0,2.448-1.576,1.934,1.934,0,0,1-.023-.271,1.623,1.623,0,0,1,3.246,0H42.2a4.847,4.847,0,0,0-6.9-4.411,9.738,9.738,0,0,0-18.515-.442c-.181-.016-.365-.016-.548-.016a9.721,9.721,0,0,0-7.238,16.229H0v3.246H97.375v-3.246Zm0,0" transform="translate(0 -280.603)" fill="#1e2541" stroke="#1e2541" stroke-width="1"/>
    </g>
  </g>
</svg>
