<svg xmlns="http://www.w3.org/2000/svg" xmlns:xlink="http://www.w3.org/1999/xlink" width="108.287" height="80.418" viewBox="0 0 108.287 80.418">
  <defs>
    <clipPath id="clip-path">
      <rect id="Retângulo_387" data-name="Retângulo 387" width="66.787" height="29.733" fill="#d8dffc"/>
    </clipPath>
  </defs>
  <g id="Grupo_683" data-name="Grupo 683" transform="translate(-10766.5 -4214)">
    <circle id="Elipse_75" data-name="Elipse 75" cx="22.5" cy="22.5" r="22.5" transform="translate(10823 4214)" fill="#d8dffc"/>
    <g id="Grupo_682" data-name="Grupo 682" transform="translate(10808 4257)">
      <g id="Grupo_681" data-name="Grupo 681" transform="translate(0 0)" clip-path="url(#clip-path)">
        <path id="Caminho_671" data-name="Caminho 671" d="M60.246,1.578l-16,6.363a12.55,12.55,0,0,1-3.446.827,6.463,6.463,0,0,1,.563,3.976l-.037.2A6.566,6.566,0,0,1,34.9,18.328c-.2,0-.4-.01-.6-.029L13.984,16.39a1.528,1.528,0,0,1,.284-3.043l20.315,1.909a3.487,3.487,0,0,0,3.739-2.844l.036-.2a3.513,3.513,0,0,0-2.448-3.94l-.024-.007-.028-.009L11.3.554A12.088,12.088,0,0,0,7.68,0H0V22.574c2.835,1.893,10.473,5.548,28.467,7.075a23.225,23.225,0,0,0,10.132-1.4A57.492,57.492,0,0,0,48.607,23.2c.01-.006,13.413-10.313,16.838-13.862a4.777,4.777,0,0,0-5.2-7.758" transform="translate(0 0)" fill="#d8dffc"/>
      </g>
    </g>
    <circle id="Elipse_76" data-name="Elipse 76" cx="13" cy="13" r="13" transform="translate(10822 4226)" fill="#ea575f"/>
    <g id="business" transform="translate(10767.001 4216.499)">
      <path id="Caminho_635" data-name="Caminho 635" d="M96.219,213.579a7.344,7.344,0,0,0-8.357-2.111L72.84,217.444a8.94,8.94,0,0,1-5.959.225l-23.07-7.233a14.2,14.2,0,0,0-4.256-.652h-7.5a2.523,2.523,0,0,0-2.231-1.35H24.639v-.058a2.574,2.574,0,0,0-2.571-2.571H2.571A2.575,2.575,0,0,0,0,208.376v30.051A2.575,2.575,0,0,0,2.571,241h19.5a2.575,2.575,0,0,0,2.571-2.571v-.058h5.182a2.524,2.524,0,0,0,2.219-1.324c7.23,4.1,19.633,5.709,26.8,6.316.692.058,1.387.087,2.081.087a24.6,24.6,0,0,0,8.684-1.575,56.8,56.8,0,0,0,9.908-5,1.435,1.435,0,1,0-1.522-2.433,53.993,53.993,0,0,1-9.4,4.745A21.794,21.794,0,0,1,59.08,240.5c-16.9-1.434-24.072-4.866-26.735-6.644v-21.2h7.212a11.34,11.34,0,0,1,3.4.52l23.063,7.232.027.008.022.007a3.3,3.3,0,0,1,2.3,3.7l-.034.189a3.274,3.274,0,0,1-3.511,2.671l-19.078-1.793a1.435,1.435,0,0,0-.268,2.858l19.078,1.793q.285.027.566.027a6.167,6.167,0,0,0,6.038-5.054l.034-.189a6.07,6.07,0,0,0-.528-3.734,11.775,11.775,0,0,0,3.235-.777l15.022-5.976a4.486,4.486,0,0,1,4.883,7.286,92.779,92.779,0,0,1-10.494,9.343,1.435,1.435,0,0,0,1.732,2.289,95.71,95.71,0,0,0,10.827-9.637,7.342,7.342,0,0,0,.348-9.837Zm-74.45-3.709v28.259H2.87V208.675h18.9ZM29.475,234.6v.9H24.639V211.3h4.835Zm0,0" transform="translate(0 -166.03)" fill="#1e2541" stroke="#1e2541" stroke-width="1"/>
      <path id="Caminho_636" data-name="Caminho 636" d="M260.536,45.274a22.387,22.387,0,1,0-22.387-22.387A22.412,22.412,0,0,0,260.536,45.274Zm0-41.9a19.516,19.516,0,1,1-19.517,19.516A19.539,19.539,0,0,1,260.536,3.371Zm0,0" transform="translate(-192.593 0)" fill="#1e2541" stroke="#1e2541" stroke-width="1"/>
      <path id="Caminho_637" data-name="Caminho 637" d="M337.621,69.934a1.435,1.435,0,0,0-1.435,1.435v.713a4.007,4.007,0,0,0-1.393,6.763A11.828,11.828,0,0,0,336.9,80.28a9.521,9.521,0,0,1,1.626,1.084,1.1,1.1,0,0,1,.18,1.468,1.312,1.312,0,0,1-1.051.544,1.4,1.4,0,0,1-.968-.416.631.631,0,0,1-.213-.426,1.435,1.435,0,0,0-2.863-.207,3.4,3.4,0,0,0,1.033,2.648,4.343,4.343,0,0,0,1.539,1v.735a1.435,1.435,0,0,0,2.871,0v-.714a4.007,4.007,0,0,0,1.393-6.763,11.805,11.805,0,0,0-2.115-1.438,9.51,9.51,0,0,1-1.621-1.081,1.1,1.1,0,0,1-.179-1.467,1.305,1.305,0,0,1,1.051-.544,1.392,1.392,0,0,1,.967.415.628.628,0,0,1,.213.426,1.435,1.435,0,0,0,2.863.207,3.4,3.4,0,0,0-1.032-2.648,4.36,4.36,0,0,0-1.539-1v-.736A1.434,1.434,0,0,0,337.621,69.934Zm0,0" transform="translate(-269.678 -56.151)" fill="#1e2541" stroke="#1e2541" stroke-width="1"/>
      <path id="Caminho_638" data-name="Caminho 638" d="M292.151,69.414a14.908,14.908,0,1,0-5.813-28.64,1.435,1.435,0,1,0,1.12,2.642,12.049,12.049,0,1,1-4.749,3.622,1.435,1.435,0,0,0-2.25-1.782,14.751,14.751,0,0,0-3.216,9.249,14.926,14.926,0,0,0,14.908,14.908Zm0,0" transform="translate(-224.208 -31.618)" fill="#1e2541" stroke="#1e2541" stroke-width="1"/>
    </g>
  </g>
</svg>
